<svg preserveAspectRatio="none" width="100%" height="100%" overflow="visible" style="display: block;" viewBox="0 0 31.7468 36.4559" fill="none" xmlns="http://www.w3.org/2000/svg">
<g id="logo_mark">
<path id="Union" fill-rule="evenodd" clip-rule="evenodd" d="M17.0629 0.814016L30.1832 8.74229C30.9386 9.21301 31.2566 9.85184 31.2898 10.5983V26.3136C31.25 27.06 30.9386 27.7056 30.1832 28.1696L17.0629 36.0979C16.1883 36.5753 15.1015 36.5753 14.2268 36.0979L1.10661 28.1696C0.351198 27.7056 0.0331319 27.0667 0 26.3136V10.5983C0.0397583 9.85184 0.351198 9.20628 1.10661 8.74229L14.2268 0.814016C15.1015 0.336571 16.1883 0.336571 17.0629 0.814016Z" fill="var(--fill-0, #226EE0)"/>
<g id="Intersect">
<path d="M31.2883 16.567V18.947C30.0166 19.5261 29.8863 20.2908 29.8863 20.2908C24.3637 19.7931 21.9681 18.83 21.9681 18.83C23.6601 17.2388 27.2275 16.5045 31.2883 16.567Z" fill="var(--fill-0, white)"/>
<path d="M31.2883 12.18V14.8934C29.0828 14.7895 26.8468 14.9299 24.6287 15.4106C24.6008 15.4167 24.5706 15.4232 24.5383 15.4301L24.5354 15.4307C23.5811 15.636 20.7608 16.2425 19.5831 17.7479C19.5831 17.7479 18.1415 16.7849 17.8977 15.9084C17.3465 13.8849 18.7033 12.1536 20.1449 11.829C23.8499 10.993 27.7238 11.3296 31.2883 12.18Z" fill="var(--fill-0, white)"/>
<path d="M27.6718 7.22876L30.1764 8.73349C30.9354 9.20372 31.255 9.84188 31.2883 10.5875V10.6053C25.9704 9.29385 20.0687 9.0927 14.4845 11.5692C14.4845 11.5692 14.7707 10.3681 14.0711 9.81628C12.9051 8.8965 9.76747 9.55656 9.76747 9.55656C15.7996 6.71514 21.9842 6.26881 27.6718 7.22876Z" fill="var(--fill-0, white)"/>
<path fill-rule="evenodd" clip-rule="evenodd" d="M5.15646 23.2341C4.06466 24.5867 4.09646 26.0691 5.77126 26.805C5.30486 22.5307 15.9261 21.7949 29.8863 21.7841C29.8863 21.7841 21.3215 21.5352 17.6857 18.289C13.7531 14.7722 17.5585 11.9155 17.5585 11.9155C15.6399 12.3808 4.62646 19.0789 5.30486 21.4919C5.56986 21.9789 5.84546 22.5091 5.63346 22.7688L5.15646 23.2341ZM6.41645 20.6908C6.73445 20.1498 7.16905 19.9983 7.25385 20.0524C7.39164 20.1498 7.34925 20.7882 7.25385 21.2427C7.19025 21.5781 6.44825 22.0867 6.19386 22.1516C6.19386 22.1516 5.98186 21.4266 6.41645 20.6908Z" fill="var(--fill-0, white)"/>
</g>
</g>
</svg>
