<svg xmlns="http://www.w3.org/2000/svg" width="32" height="32" fill="none" viewBox="0 0 32 32"><g clip-path="url(#a)"><path fill="#f90043" d="M0 9.263A9.263 9.263 0 0 1 9.263 0h13.474A9.263 9.263 0 0 1 32 9.263v13.474A9.263 9.263 0 0 1 22.737 32H9.263A9.263 9.263 0 0 1 0 22.737z"/><path fill="#fff" d="M7.368 11.053v9.894h6.418V19.18H9.479v-8.127zm8.763 0v9.894h3.673c.746 0 1.422-.099 2.013-.325.59-.226 1.098-.537 1.52-.961s.732-.933.957-1.555c.225-.608.338-1.314.338-2.106s-.113-1.484-.338-2.106c-.225-.608-.535-1.117-.957-1.54-.422-.425-.93-.736-1.52-.962-.591-.226-1.267-.34-2.013-.34zM22.451 16a4.8 4.8 0 0 1-.17 1.315c-.112.395-.267.72-.492 1.003a2.1 2.1 0 0 1-.83.65c-.338.156-.747.227-1.211.227h-1.492v-6.39h1.492c.464 0 .873.085 1.21.227.338.155.606.367.83.65.226.282.38.622.493 1.018.113.395.17.82.17 1.3"/></g><defs><clipPath id="a"><path fill="#fff" d="M0 0h32v32H0z"/></clipPath></defs></svg>