<svg xmlns="http://www.w3.org/2000/svg" fill="none" overflow="visible" preserveAspectRatio="none" style="display:block" viewBox="0 0 32 32"><rect width="32" height="32" fill="var(--fill-0, #5b75dc)" rx="8"/><path fill="var(--fill-0, white)" fill-opacity=".99" fill-rule="evenodd" d="M26.196 7.748c.102 0 .225.144.286.308.062.163.102.491.102.716 0 .226-.163.676-.347 1.024-.348.574-.348.635.143 1.864.45 1.106.593 1.29 1.33 1.536.45.164.88.41.961.533.082.143.205.573.266.942s0 .799-.143.963c-.184.225-.634.327-1.493.327-.88 0-1.35-.102-1.658-.369-.245-.204-.572-.921-.777-1.638-.184-.717-.327-1.495-.327-1.74 0-.267.327-1.373.736-2.459.41-1.105.819-2.007.92-2.007m-11.089-4.67c.635.062.737.144.9.779.103.39.123 1.085.062 1.536-.082.45-.205.942-.286 1.086-.082.143-.737.41-1.473.573-.737.184-1.842.553-2.455.86-.614.287-1.576.942-2.128 1.454-.532.512-1.31 1.536-1.74 2.253-.551 1.004-.9 1.393-1.452 1.618-.388.144-1.309.553-2.045.88-.737.329-1.371.554-1.432.492-.062-.061.02-.327.163-.614.123-.287.491-.594.819-.717.306-.102.675-.266.818-.348.163-.102.49-.676.757-1.29.409-.983.43-1.188.184-1.639a3.3 3.3 0 0 1-.287-1.229c0-.594.164-.88 1.064-1.781.594-.594 1.33-1.168 1.657-1.27.43-.185.716-.144 1.33.164.757.368.757.368 1.842-.103.572-.266 1.207-.491 1.37-.491.184 0 .41-.349.573-.84.123-.471.43-.983.655-1.147.225-.143.716-.246 1.104-.225m2.271-.04c.062 0 .348.164.675.41.307.225.594.655.655.982.082.451.348.676 2.864 1.844l.819-.39c.675-.327.92-.368 1.432-.163.552.205.572.246.204.389-.225.102-1.268.512-4.194 1.638l-1.125-.41c-.614-.225-1.268-.614-1.432-.86-.184-.266-.389-1.044-.47-1.76-.123-1.045-.082-1.332.163-1.475.164-.103.348-.205.41-.205m6.2 4.096c.183 0 .531.102.756.205.307.164.41.41.41 1.024 0 .553-1.024 3.584-3.192 9.38-1.76 4.69-3.355 8.848-3.58 9.216-.307.512-.532.656-1.003.656-.43 0-.695-.144-.86-.45-.142-.267-.572-1.434-.981-2.622-.614-1.823-.777-2.15-1.166-2.192-.266-.04-1.166.369-2.046.901-.88.533-2.046 1.168-2.619 1.434-.654.307-1.166.43-1.411.328a1.4 1.4 0 0 1-.573-.615c-.123-.348.061-1.188.716-3.113.655-2.027.798-2.724.634-2.928-.143-.144-1.064-.492-2.046-.758-1.002-.267-2.025-.594-2.27-.758-.328-.205-.471-.492-.471-.901s.143-.717.47-.922c.246-.164 2.148-.983 4.235-1.843s4.992-2.048 6.445-2.663a735 735 0 0 1 5.421-2.232c1.514-.615 2.926-1.127 3.13-1.147m-9.78 8.52c-2.25 1.577-2.72 1.987-3.007 2.704-.205.47-.369 1.27-.369 1.781 0 .512.103.922.205.922.123 0 2.373-2.09 5.033-4.65 2.66-2.58 4.93-4.833 5.012-5.017.123-.266.102-.369-.102-.369-.143 0-1.125.615-2.19 1.393a566 566 0 0 1-4.582 3.236m14.28.922c.082-.02.286.02.45.081.164.062.307.308.307.574.02.246-.143.614-.348.799-.204.205-.634.45-.982.532-.511.144-.695.369-1.105 1.495-.45 1.27-.47 1.332-.122 2.028q.348.716.184 1.229c-.082.287-.532.921-.982 1.413-.47.491-1.085 1.024-1.391 1.167-.328.164-.778.287-1.023.287a3.1 3.1 0 0 1-.982-.287c-.45-.245-.634-.225-1.576.205-.654.287-1.125.41-1.186.287-.061-.102.102-.717.368-1.352.348-.9.634-1.25 1.268-1.618.45-.245 1.249-.921 1.76-1.454.511-.553 1.125-1.372 1.35-1.823s.512-1.147.634-1.536c.123-.389.43-.9.675-1.126s.921-.512 1.494-.656c.573-.123 1.105-.245 1.207-.245M3.16 17.17c.061 0 .348.122.654.286.328.144 1.167.43 1.903.615 1.023.266 1.391.47 1.575.84.144.286.266.716.266.982 0 .246-.286 1.311-.613 2.356-.348 1.024-.716 1.884-.819 1.884-.123 0-.307-.184-.409-.41a2 2 0 0 1-.205-.819c0-.225.144-.655.287-.962.286-.512.266-.676-.143-1.7-.246-.615-.532-1.25-.614-1.373-.082-.143-.43-.307-.757-.368-.348-.062-.757-.307-.92-.553-.164-.266-.308-.533-.308-.615 0-.102.041-.163.103-.163m8.858 6.963c.123 0 .737.184 1.33.43.573.225 1.084.43 1.105.45.04.021.286.697.573 1.475.266.779.511 1.598.511 1.803a.52.52 0 0 1-.307.45c-.164.062-.634-.04-1.023-.205-.532-.225-.777-.491-.92-1.024-.185-.634-.39-.798-1.576-1.33-1.289-.574-1.432-.595-1.82-.288-.246.164-.655.267-.921.226-.47-.062-.47-.082-.082-.246.225-.102.962-.533 1.637-.963s1.35-.778 1.493-.778" clip-rule="evenodd"/></svg>