<svg xmlns="http://www.w3.org/2000/svg" fill="none" overflow="visible" preserveAspectRatio="none" style="display:block" viewBox="0 0 31.747 36.456"><path fill="var(--fill-0, #226ee0)" fill-rule="evenodd" d="m17.063.814 13.12 7.928c.756.471 1.074 1.11 1.107 1.856v15.716c-.04.746-.351 1.392-1.107 1.856l-13.12 7.928a2.99 2.99 0 0 1-2.836 0L1.107 28.17C.35 27.706.033 27.067 0 26.314V10.598c.04-.746.351-1.392 1.107-1.856L14.227.814a2.99 2.99 0 0 1 2.836 0" clip-rule="evenodd"/><g fill="var(--fill-0, white)"><path d="M31.288 16.567v2.38c-1.271.58-1.402 1.344-1.402 1.344-5.522-.498-7.918-1.461-7.918-1.461 1.692-1.591 5.26-2.325 9.32-2.263m0-4.387v2.713c-2.205-.104-4.441.037-6.66.518l-.09.02h-.003c-.954.205-3.774.812-4.952 2.317 0 0-1.441-.963-1.685-1.84-.552-2.023.805-3.754 2.247-4.079 3.705-.836 7.579-.5 11.143.351m-3.616-4.951 2.504 1.504c.76.47 1.079 1.109 1.112 1.854v.018c-5.318-1.311-11.22-1.512-16.803.964 0 0 .286-1.2-.414-1.753-1.166-.92-4.304-.26-4.304-.26C15.8 6.717 21.984 6.27 27.672 7.23"/><path fill-rule="evenodd" d="M5.156 23.234c-1.091 1.353-1.06 2.835.615 3.571-.466-4.274 10.155-5.01 24.115-5.02 0 0-8.564-.25-12.2-3.496-3.933-3.517-.128-6.374-.128-6.374-1.918.466-12.932 7.164-12.253 9.577.265.487.54 1.017.328 1.277zm1.26-2.543c.318-.541.753-.693.838-.639.138.098.095.736 0 1.19-.064.336-.806.845-1.06.91 0 0-.212-.725.222-1.461" clip-rule="evenodd"/></g></svg>