<svg preserveAspectRatio="none" width="100%" height="100%" overflow="visible" style="display: block;" viewBox="0 0 32 32" fill="none" xmlns="http://www.w3.org/2000/svg">
<g id="image 256_layerstyle">
<rect width="32" height="32" rx="8" fill="var(--fill-0, #5B75DC)"/>
<path id="Vector" fill-rule="evenodd" clip-rule="evenodd" d="M26.1958 7.74836C26.2981 7.74836 26.4209 7.89173 26.4822 8.05557C26.5436 8.21942 26.5845 8.54712 26.5845 8.77241C26.5845 8.99769 26.4209 9.44827 26.2367 9.79645C25.8889 10.3699 25.8889 10.4314 26.3799 11.6602C26.83 12.7662 26.9732 12.9505 27.7097 13.1963C28.1598 13.3601 28.5894 13.6059 28.6713 13.7288C28.7531 13.8721 28.8759 14.3022 28.9372 14.6709C28.9986 15.0396 28.9372 15.4697 28.794 15.6335C28.6099 15.8588 28.1598 15.9612 27.3006 15.9612C26.4209 15.9612 25.9503 15.8588 25.6434 15.5925C25.3979 15.3877 25.0706 14.6709 24.866 13.9541C24.6819 13.2372 24.5387 12.459 24.5387 12.2132C24.5387 11.9469 24.866 10.841 25.2752 9.75549C25.6844 8.64952 26.0935 7.74836 26.1958 7.74836V7.74836ZM15.1074 3.07872C15.7416 3.14016 15.8439 3.22209 16.0076 3.857C16.1099 4.24613 16.1303 4.94248 16.069 5.39306C15.9871 5.84364 15.8644 6.33518 15.7826 6.47855C15.7007 6.62191 15.0461 6.88816 14.3096 7.05201C13.5731 7.23634 12.4683 7.605 11.8546 7.91221C11.2408 8.19894 10.2793 8.85433 9.7269 9.36635C9.19498 9.87837 8.41757 10.9024 7.98794 11.6192C7.43557 12.6228 7.08778 13.0119 6.53541 13.2372C6.1467 13.3806 5.22608 13.7902 4.48958 14.1179C3.75308 14.4456 3.11887 14.6709 3.0575 14.6095C2.99612 14.548 3.07796 14.2818 3.22116 13.995C3.34391 13.7083 3.71216 13.4011 4.0395 13.2782C4.34637 13.1758 4.71462 13.0119 4.85783 12.93C5.02149 12.8276 5.34883 12.2542 5.61478 11.6397C6.02395 10.6566 6.04441 10.4518 5.79891 10.0013C5.6557 9.71453 5.51249 9.16154 5.51249 8.77241C5.51249 8.17846 5.67616 7.89173 6.57632 6.99057C7.16961 6.39662 7.90611 5.82316 8.23344 5.72076C8.66307 5.53643 8.94948 5.57739 9.56323 5.8846C10.3202 6.25326 10.3202 6.25326 11.4045 5.7822C11.9773 5.51595 12.6115 5.29066 12.7752 5.29066C12.9593 5.29066 13.1843 4.94248 13.348 4.45094C13.4708 3.97988 13.7776 3.46786 14.0027 3.30401C14.2277 3.16065 14.7187 3.05824 15.1074 3.07872V3.07872ZM17.3783 3.03776C17.4397 3.03776 17.7261 3.20161 18.0534 3.44738C18.3603 3.67267 18.6467 4.10277 18.7081 4.43046C18.7899 4.88104 19.0559 5.10633 21.5722 6.27374L22.3906 5.8846C23.0657 5.55691 23.3112 5.51595 23.8227 5.72076C24.375 5.92556 24.3955 5.96653 24.0272 6.10989C23.8022 6.2123 22.7588 6.62191 19.8333 7.74836L18.7081 7.33874C18.0943 7.11345 17.4397 6.72432 17.276 6.47855C17.0919 6.2123 16.8873 5.43402 16.8055 4.71719C16.6827 3.67267 16.7236 3.38594 16.9691 3.24257C17.1328 3.14016 17.3169 3.03776 17.3783 3.03776V3.03776ZM23.5772 7.13394C23.7613 7.13394 24.1091 7.23634 24.3341 7.33874C24.641 7.50259 24.7433 7.74836 24.7433 8.36279C24.7433 8.91577 23.7204 11.9469 21.5518 17.743C19.7924 22.4331 18.1966 26.5908 17.9716 26.9594C17.6647 27.4714 17.4397 27.6148 16.9691 27.6148C16.5395 27.6148 16.2736 27.4714 16.1099 27.1642C15.9667 26.898 15.5371 25.7306 15.1279 24.5427C14.5141 22.7199 14.3505 22.3922 13.9618 22.3512C13.6958 22.3103 12.7956 22.7199 11.9159 23.2524C11.0362 23.7849 9.87011 24.4198 9.29728 24.686C8.64261 24.9933 8.13115 25.1161 7.88565 25.0137C7.68107 24.9113 7.41511 24.6451 7.31282 24.3993C7.19007 24.0511 7.3742 23.2114 8.02886 21.2862C8.68353 19.2586 8.82673 18.5623 8.66307 18.3575C8.51986 18.2141 7.59924 17.8659 6.61724 17.5997C5.61478 17.3334 4.59187 17.0057 4.34637 16.8419C4.01904 16.6371 3.87583 16.3503 3.87583 15.9407C3.87583 15.5311 4.01904 15.2239 4.34637 15.0191C4.59187 14.8552 6.49449 14.036 8.58124 13.1758C10.668 12.3156 13.5731 11.1277 15.0256 10.5133C16.4986 9.89885 18.9331 8.89529 20.447 8.28086C21.961 7.66644 23.3726 7.15442 23.5772 7.13394V7.13394ZM13.7981 15.654C11.5477 17.231 11.0771 17.6406 10.7907 18.3575C10.5861 18.8285 10.4225 19.6273 10.4225 20.1393C10.4225 20.6513 10.5248 21.0609 10.6271 21.0609C10.7498 21.0609 13.0002 18.9719 15.6598 16.4118C18.3194 13.8312 20.5902 11.5783 20.6721 11.394C20.7948 11.1277 20.7744 11.0253 20.5698 11.0253C20.4266 11.0253 19.4446 11.6397 18.3808 12.418C17.3169 13.1758 15.2711 14.6299 13.7981 15.654V15.654ZM28.078 16.5756C28.1598 16.5551 28.3644 16.5961 28.5281 16.6575C28.6917 16.719 28.8349 16.9648 28.8349 17.231C28.8554 17.4768 28.6917 17.8454 28.4871 18.0298C28.2826 18.2346 27.8529 18.4803 27.5052 18.5623C26.9937 18.7056 26.8096 18.9309 26.4004 20.0574C25.9503 21.3272 25.9299 21.3886 26.2777 22.085C26.5095 22.5629 26.5709 22.9725 26.4618 23.3138C26.3799 23.6006 25.9299 24.2355 25.4798 24.727C25.0092 25.2185 24.3955 25.751 24.0886 25.8944C23.7613 26.0583 23.3112 26.1811 23.0657 26.1811C22.7997 26.1607 22.3701 26.0378 22.0837 25.8944C21.6336 25.6486 21.4495 25.6691 20.5084 26.0992C19.8538 26.386 19.3832 26.5088 19.3218 26.386C19.2605 26.2836 19.4241 25.6691 19.6901 25.0342C20.0379 24.1331 20.3243 23.7849 20.9585 23.4162C21.4086 23.1705 22.2065 22.4946 22.7179 21.9621C23.2294 21.4091 23.8431 20.5899 24.0682 20.1393C24.2932 19.6887 24.5796 18.9924 24.7024 18.6032C24.8251 18.2141 25.132 17.7021 25.3775 17.4768C25.623 17.2515 26.2981 16.9648 26.8709 16.8214C27.4438 16.6985 27.9757 16.5756 28.078 16.5756V16.5756ZM3.15979 17.1696C3.22116 17.1696 3.50758 17.2924 3.81445 17.4563C4.14179 17.5997 4.98058 17.8864 5.71708 18.0707C6.73999 18.337 7.10824 18.5418 7.29236 18.9104C7.43557 19.1972 7.55832 19.6273 7.55832 19.8935C7.55832 20.1393 7.27191 21.2043 6.94457 22.2488C6.59678 23.2729 6.22853 24.1331 6.12624 24.1331C6.00349 24.1331 5.81937 23.9487 5.71708 23.7234C5.59433 23.4982 5.51249 23.1295 5.51249 22.9042C5.51249 22.6789 5.6557 22.2488 5.79891 21.9416C6.08532 21.4296 6.06487 21.2657 5.6557 20.2417C5.4102 19.6273 5.12378 18.9924 5.04195 18.8695C4.96012 18.7261 4.61233 18.5623 4.285 18.5008C3.9372 18.4394 3.52804 18.1936 3.36437 17.9478C3.20071 17.6816 3.0575 17.4153 3.0575 17.3334C3.0575 17.231 3.09841 17.1696 3.15979 17.1696V17.1696ZM12.0182 24.1331C12.141 24.1331 12.7547 24.3174 13.348 24.5632C13.9208 24.7884 14.4323 24.9933 14.4528 25.0137C14.4937 25.0342 14.7392 25.7101 15.0256 26.4884C15.2916 27.2666 15.5371 28.0859 15.5371 28.2907C15.5371 28.475 15.3938 28.6798 15.2302 28.7413C15.0665 28.8027 14.596 28.7003 14.2073 28.5364C13.6753 28.3112 13.4298 28.0449 13.2866 27.5124C13.1025 26.8775 12.8979 26.7137 11.7114 26.1811C10.4225 25.6077 10.2793 25.5872 9.89057 25.8944C9.64507 26.0583 9.2359 26.1607 8.96994 26.1197C8.4994 26.0583 8.4994 26.0378 8.88811 25.8739C9.11315 25.7715 9.84965 25.3414 10.5248 24.9113C11.1999 24.4812 11.875 24.1331 12.0182 24.1331V24.1331Z" fill="var(--fill-0, white)" fill-opacity="0.99"/>
</g>
</svg>
