<svg width="343" height="53" viewBox="0 0 343 53" fill="none" xmlns="http://www.w3.org/2000/svg">
  <rect x="8" width="327" height="53" rx="26.5" fill="#243888"/>
  <path d="M100.149 21.5H103.047V32H100.149V21.5ZM108.409 21.5H111.321V32H108.409V21.5ZM101.773 25.378H109.613V27.954H101.773V25.378ZM120.193 32L119.829 29.116L120.207 28.01L119.829 26.904L120.193 24.006H123.161L122.657 27.996L123.161 32H120.193ZM120.865 28.01C120.734 28.85 120.473 29.5873 120.081 30.222C119.698 30.8567 119.208 31.3513 118.611 31.706C118.023 32.0513 117.351 32.224 116.595 32.224C115.811 32.224 115.12 32.0513 114.523 31.706C113.935 31.3513 113.473 30.8567 113.137 30.222C112.801 29.578 112.633 28.8407 112.633 28.01C112.633 27.1607 112.801 26.4187 113.137 25.784C113.473 25.1493 113.935 24.6547 114.523 24.3C115.12 23.9453 115.811 23.768 116.595 23.768C117.351 23.768 118.023 23.9453 118.611 24.3C119.208 24.6453 119.703 25.1353 120.095 25.77C120.487 26.3953 120.743 27.142 120.865 28.01ZM115.531 28.01C115.531 28.402 115.61 28.752 115.769 29.06C115.937 29.368 116.165 29.6107 116.455 29.788C116.744 29.956 117.075 30.04 117.449 30.04C117.841 30.04 118.209 29.956 118.555 29.788C118.9 29.6107 119.203 29.368 119.465 29.06C119.726 28.752 119.922 28.402 120.053 28.01C119.922 27.6087 119.726 27.254 119.465 26.946C119.203 26.638 118.9 26.3953 118.555 26.218C118.209 26.0407 117.841 25.952 117.449 25.952C117.075 25.952 116.744 26.0407 116.455 26.218C116.165 26.3953 115.937 26.638 115.769 26.946C115.61 27.254 115.531 27.6087 115.531 28.01ZM127.699 29.83C126.57 29.83 125.706 29.5173 125.109 28.892C124.512 28.2667 124.213 27.3613 124.213 26.176V24.006H127.069V26.05C127.069 27.114 127.568 27.646 128.567 27.646C129.015 27.646 129.44 27.5247 129.841 27.282C130.242 27.03 130.588 26.666 130.877 26.19L131.017 28.024C130.784 28.584 130.368 29.0273 129.771 29.354C129.183 29.6713 128.492 29.83 127.699 29.83ZM130.569 32V24.006H133.439V32H130.569ZM142.232 32L141.868 29.116L142.246 28.01L141.868 26.904L142.232 24.006H145.2L144.696 27.996L145.2 32H142.232ZM142.904 28.01C142.773 28.85 142.512 29.5873 142.12 30.222C141.737 30.8567 141.247 31.3513 140.65 31.706C140.062 32.0513 139.39 32.224 138.634 32.224C137.85 32.224 137.159 32.0513 136.562 31.706C135.974 31.3513 135.512 30.8567 135.176 30.222C134.84 29.578 134.672 28.8407 134.672 28.01C134.672 27.1607 134.84 26.4187 135.176 25.784C135.512 25.1493 135.974 24.6547 136.562 24.3C137.159 23.9453 137.85 23.768 138.634 23.768C139.39 23.768 140.062 23.9453 140.65 24.3C141.247 24.6453 141.742 25.1353 142.134 25.77C142.526 26.3953 142.782 27.142 142.904 28.01ZM137.57 28.01C137.57 28.402 137.649 28.752 137.808 29.06C137.976 29.368 138.204 29.6107 138.494 29.788C138.783 29.956 139.114 30.04 139.488 30.04C139.88 30.04 140.248 29.956 140.594 29.788C140.939 29.6107 141.242 29.368 141.504 29.06C141.765 28.752 141.961 28.402 142.092 28.01C141.961 27.6087 141.765 27.254 141.504 26.946C141.242 26.638 140.939 26.3953 140.594 26.218C140.248 26.0407 139.88 25.952 139.488 25.952C139.114 25.952 138.783 26.0407 138.494 26.218C138.204 26.3953 137.976 26.638 137.808 26.946C137.649 27.254 137.57 27.6087 137.57 28.01ZM149.024 24.986H151.894V32H149.024V24.986ZM145.986 24.006H154.932V26.162H145.986V24.006ZM155.912 32V24.006H158.768V31.3L157.886 29.998H160.714C161.069 29.998 161.344 29.914 161.54 29.746C161.736 29.5687 161.834 29.3213 161.834 29.004C161.834 28.696 161.736 28.458 161.54 28.29C161.344 28.1127 161.069 28.024 160.714 28.024H157.872V26.092H161.19C161.899 26.092 162.515 26.218 163.038 26.47C163.561 26.7127 163.967 27.058 164.256 27.506C164.555 27.9447 164.704 28.458 164.704 29.046C164.704 29.6433 164.555 30.166 164.256 30.614C163.967 31.0527 163.561 31.3933 163.038 31.636C162.525 31.8787 161.923 32 161.232 32H155.912ZM178.268 24.006V32H175.398V24.832L176.714 26.134H170.386L171.702 24.832V32H168.832V24.006H178.268ZM184.528 32.224C183.557 32.224 182.689 32.0467 181.924 31.692C181.168 31.3373 180.57 30.8427 180.132 30.208C179.693 29.564 179.474 28.8173 179.474 27.968C179.474 27.1373 179.684 26.4093 180.104 25.784C180.524 25.1493 181.098 24.6547 181.826 24.3C182.563 23.9453 183.394 23.768 184.318 23.768C185.279 23.768 186.096 23.978 186.768 24.398C187.449 24.8087 187.972 25.392 188.336 26.148C188.709 26.904 188.896 27.7953 188.896 28.822H181.784V27.1H187.286L186.348 27.702C186.31 27.2913 186.208 26.946 186.04 26.666C185.872 26.3767 185.648 26.1573 185.368 26.008C185.097 25.8587 184.77 25.784 184.388 25.784C183.968 25.784 183.608 25.868 183.31 26.036C183.011 26.204 182.778 26.4373 182.61 26.736C182.442 27.0253 182.358 27.366 182.358 27.758C182.358 28.262 182.47 28.6913 182.694 29.046C182.927 29.3913 183.263 29.6573 183.702 29.844C184.15 30.0307 184.696 30.124 185.34 30.124C185.928 30.124 186.511 30.0493 187.09 29.9C187.678 29.7413 188.21 29.522 188.686 29.242V31.062C188.135 31.4353 187.505 31.7247 186.796 31.93C186.096 32.126 185.34 32.224 184.528 32.224ZM190.119 24.006H192.989V26.302L192.863 26.638V28.878L192.989 29.536V34.31H190.119V24.006ZM192.079 28.01C192.2 27.142 192.452 26.3953 192.835 25.77C193.227 25.1353 193.722 24.6453 194.319 24.3C194.916 23.9453 195.593 23.768 196.349 23.768C197.133 23.768 197.819 23.9453 198.407 24.3C199.004 24.6547 199.466 25.1493 199.793 25.784C200.129 26.4187 200.297 27.1607 200.297 28.01C200.297 28.8407 200.129 29.578 199.793 30.222C199.466 30.8567 199.004 31.3513 198.407 31.706C197.819 32.0513 197.133 32.224 196.349 32.224C195.593 32.224 194.916 32.0513 194.319 31.706C193.722 31.3513 193.232 30.8567 192.849 30.222C192.466 29.5873 192.21 28.85 192.079 28.01ZM197.413 28.01C197.413 27.6087 197.329 27.254 197.161 26.946C197.002 26.638 196.774 26.3953 196.475 26.218C196.186 26.0407 195.854 25.952 195.481 25.952C195.098 25.952 194.734 26.0407 194.389 26.218C194.044 26.3953 193.74 26.638 193.479 26.946C193.218 27.254 193.017 27.6087 192.877 28.01C193.017 28.402 193.218 28.752 193.479 29.06C193.74 29.368 194.044 29.6107 194.389 29.788C194.734 29.956 195.098 30.04 195.481 30.04C195.854 30.04 196.186 29.956 196.475 29.788C196.774 29.6107 197.002 29.368 197.161 29.06C197.329 28.752 197.413 28.402 197.413 28.01ZM206.225 32.224C205.254 32.224 204.386 32.0467 203.621 31.692C202.865 31.3373 202.268 30.8427 201.829 30.208C201.39 29.564 201.171 28.8173 201.171 27.968C201.171 27.1373 201.381 26.4093 201.801 25.784C202.221 25.1493 202.795 24.6547 203.523 24.3C204.26 23.9453 205.091 23.768 206.015 23.768C206.976 23.768 207.793 23.978 208.465 24.398C209.146 24.8087 209.669 25.392 210.033 26.148C210.406 26.904 210.593 27.7953 210.593 28.822H203.481V27.1H208.983L208.045 27.702C208.008 27.2913 207.905 26.946 207.737 26.666C207.569 26.3767 207.345 26.1573 207.065 26.008C206.794 25.8587 206.468 25.784 206.085 25.784C205.665 25.784 205.306 25.868 205.007 26.036C204.708 26.204 204.475 26.4373 204.307 26.736C204.139 27.0253 204.055 27.366 204.055 27.758C204.055 28.262 204.167 28.6913 204.391 29.046C204.624 29.3913 204.96 29.6573 205.399 29.844C205.847 30.0307 206.393 30.124 207.037 30.124C207.625 30.124 208.208 30.0493 208.787 29.9C209.375 29.7413 209.907 29.522 210.383 29.242V31.062C209.832 31.4353 209.202 31.7247 208.493 31.93C207.793 32.126 207.037 32.224 206.225 32.224ZM216.506 32.224C215.536 32.224 214.668 32.0467 213.902 31.692C213.146 31.3373 212.549 30.8427 212.11 30.208C211.672 29.564 211.452 28.8173 211.452 27.968C211.452 27.1373 211.662 26.4093 212.082 25.784C212.502 25.1493 213.076 24.6547 213.804 24.3C214.542 23.9453 215.372 23.768 216.296 23.768C217.258 23.768 218.074 23.978 218.746 24.398C219.428 24.8087 219.95 25.392 220.314 26.148C220.688 26.904 220.874 27.7953 220.874 28.822H213.762V27.1H219.264L218.326 27.702C218.289 27.2913 218.186 26.946 218.018 26.666C217.85 26.3767 217.626 26.1573 217.346 26.008C217.076 25.8587 216.749 25.784 216.366 25.784C215.946 25.784 215.587 25.868 215.288 26.036C214.99 26.204 214.756 26.4373 214.588 26.736C214.42 27.0253 214.336 27.366 214.336 27.758C214.336 28.262 214.448 28.6913 214.672 29.046C214.906 29.3913 215.242 29.6573 215.68 29.844C216.128 30.0307 216.674 30.124 217.318 30.124C217.906 30.124 218.49 30.0493 219.068 29.9C219.656 29.7413 220.188 29.522 220.664 29.242V31.062C220.114 31.4353 219.484 31.7247 218.774 31.93C218.074 32.126 217.318 32.224 216.506 32.224ZM226.283 32.224C225.359 32.224 224.547 32.1073 223.847 31.874C223.157 31.6313 222.615 31.2907 222.223 30.852C221.831 30.404 221.621 29.8767 221.593 29.27H224.351C224.407 29.606 224.599 29.8627 224.925 30.04C225.261 30.2173 225.714 30.306 226.283 30.306C226.834 30.306 227.259 30.236 227.557 30.096C227.856 29.956 228.005 29.746 228.005 29.466C228.005 29.214 227.875 29.032 227.613 28.92C227.352 28.808 226.937 28.752 226.367 28.752H224.953V27.212H226.325C226.829 27.212 227.203 27.1467 227.445 27.016C227.688 26.8853 227.809 26.708 227.809 26.484C227.809 26.232 227.674 26.0407 227.403 25.91C227.133 25.77 226.759 25.7 226.283 25.7C225.761 25.7 225.341 25.784 225.023 25.952C224.715 26.1107 224.538 26.3487 224.491 26.666H221.747C221.775 26.134 221.971 25.6487 222.335 25.21C222.709 24.7713 223.236 24.4213 223.917 24.16C224.599 23.8987 225.425 23.768 226.395 23.768C227.254 23.768 228.005 23.8707 228.649 24.076C229.293 24.272 229.793 24.5473 230.147 24.902C230.511 25.2473 230.693 25.644 230.693 26.092C230.693 26.4373 230.581 26.764 230.357 27.072C230.143 27.3707 229.788 27.6087 229.293 27.786C228.799 27.9633 228.136 28.052 227.305 28.052V27.814C228.463 27.7673 229.349 27.898 229.965 28.206C230.581 28.514 230.889 28.9993 230.889 29.662C230.889 30.1473 230.707 30.586 230.343 30.978C229.989 31.3607 229.466 31.664 228.775 31.888C228.094 32.112 227.263 32.224 226.283 32.224ZM243.474 29.872V33.918H241.01V32H234.024V33.918H231.56V29.872H233.968L234.5 29.914H240.296L240.786 29.872H243.474ZM233.226 24.006H242.018V31.454H239.176V24.776L240.478 26.078H234.626L235.69 25.042C235.82 25.4247 235.9 25.7887 235.928 26.134C235.956 26.47 235.97 26.778 235.97 27.058C235.97 28.346 235.75 29.3493 235.312 30.068C234.873 30.7773 234.257 31.132 233.464 31.132L232.302 30.152C233.03 29.648 233.394 28.4253 233.394 26.484C233.394 26.1107 233.38 25.714 233.352 25.294C233.324 24.874 233.282 24.4447 233.226 24.006Z" fill="white"/>
</svg>
