<svg width="48" height="48" viewBox="0 0 48 48" fill="none" xmlns="http://www.w3.org/2000/svg">
  <rect width="48" height="48" rx="24" fill="#6678B6" />
  <path d="M26.3983 22.0145L18.0622 18.9384C17.844 18.8574 17.6119 18.8202 17.3792 18.8291C17.1466 18.838 16.918 18.8927 16.7066 18.9902C16.4952 19.0876 16.3051 19.2259 16.1473 19.397C15.9894 19.568 15.8669 19.7686 15.7867 19.9872L12.7104 28.3236C12.6294 28.5418 12.5923 28.7739 12.6011 29.0065C12.61 29.2392 12.6648 29.4677 12.7622 29.6791C12.8597 29.8906 12.9979 30.0807 13.169 30.2385C13.3401 30.3964 13.5407 30.5189 13.7592 30.599L22.0956 33.6749C22.3138 33.7559 22.5459 33.793 22.7785 33.7841C23.0111 33.7752 23.2396 33.7204 23.451 33.623C23.6624 33.5255 23.8525 33.3873 24.0103 33.2162C24.1682 33.0452 24.2907 32.8446 24.3708 32.6261L27.4469 24.2899C27.5279 24.0717 27.5651 23.8396 27.5562 23.607C27.5473 23.3743 27.4926 23.1458 27.3951 22.9344C27.2977 22.7229 27.1594 22.5328 26.9883 22.375C26.8172 22.2171 26.6169 22.0946 26.3983 22.0145ZM18.882 21.3619C19.0574 21.4253 19.2185 21.5228 19.3559 21.649C19.4933 21.7751 19.6042 21.9273 19.6823 22.0966C19.7603 22.266 19.804 22.4492 19.8106 22.6356C19.8173 22.822 19.7868 23.0078 19.7211 23.1823C19.6577 23.3577 19.5602 23.5188 19.434 23.6562C19.3079 23.7936 19.1557 23.9045 18.9863 23.9826C18.817 24.0606 18.6338 24.1043 18.4474 24.1109C18.261 24.1176 18.0752 24.0871 17.9007 24.0214C17.7253 23.958 17.5642 23.8604 17.4268 23.7343C17.2894 23.6082 17.1785 23.456 17.1004 23.2866C17.0223 23.1173 16.9787 22.9341 16.9721 22.7477C16.9654 22.5613 16.9958 22.3755 17.0616 22.201C17.3609 21.469 18.1661 21.0977 18.882 21.3619ZM15.9571 29.2891C15.7817 29.2258 15.6206 29.1282 15.4832 29.0021C15.3458 28.876 15.2348 28.7238 15.1567 28.5545C15.0787 28.3851 15.035 28.2019 15.0283 28.0155C15.0217 27.8291 15.0521 27.6432 15.1179 27.4687C15.3915 26.7271 16.1967 26.3561 16.9383 26.6297C17.6799 26.9033 18.0509 27.7085 17.7773 28.4498C17.714 28.6252 17.6164 28.7863 17.4903 28.9237C17.3642 29.0611 17.2121 29.172 17.0427 29.2501C16.8734 29.3282 16.6902 29.3719 16.5039 29.3786C16.3175 29.3853 16.1317 29.3548 15.9571 29.2891ZM19.5883 27.6365C18.8467 27.3629 18.4757 26.5577 18.7493 25.8161C19.0229 25.0745 19.8281 24.7034 20.5695 24.977C21.3108 25.2506 21.6823 26.0558 21.4087 26.7974C21.3454 26.9728 21.2478 27.1339 21.1217 27.2713C20.9956 27.4087 20.8434 27.5196 20.674 27.5977C20.5047 27.6758 20.3215 27.7194 20.1351 27.726C19.9487 27.7327 19.7629 27.7023 19.5883 27.6365ZM21.2503 31.2422C21.0749 31.1789 20.9139 31.0813 20.7765 30.9552C20.6391 30.8291 20.5282 30.6769 20.4501 30.5075C20.372 30.3381 20.3284 30.1549 20.3217 29.9686C20.3151 29.7822 20.3455 29.5963 20.4113 29.4218C20.6849 28.6802 21.4901 28.3092 22.2317 28.5828C22.9733 28.8564 23.3443 29.6616 23.0707 30.403C23.0074 30.5784 22.9099 30.7395 22.7838 30.8769C22.6576 31.0143 22.5055 31.1253 22.3361 31.2034C22.1667 31.2814 21.9835 31.3251 21.7971 31.3318C21.6107 31.3384 21.4249 31.308 21.2503 31.2422ZM23.2032 25.9488C23.0278 25.8854 22.8668 25.7879 22.7294 25.6618C22.5921 25.5357 22.4811 25.3835 22.4031 25.2142C22.325 25.0448 22.2814 24.8617 22.2747 24.6753C22.268 24.489 22.2984 24.3031 22.3642 24.1286C22.4275 23.9532 22.5251 23.7922 22.6512 23.6548C22.7773 23.5174 22.9294 23.4064 23.0987 23.3283C23.2681 23.2503 23.4513 23.2066 23.6376 23.1999C23.824 23.1932 24.0098 23.2236 24.1843 23.2894C24.9259 23.563 25.2972 24.3682 25.0236 25.1098C24.75 25.8514 23.9448 26.2224 23.2032 25.9488Z" fill="white" />
  <path d="M33.6284 14.2142H24.7429C24.5101 14.2137 24.2795 14.2592 24.0643 14.3481C23.8492 14.437 23.6537 14.5675 23.489 14.7321C23.3244 14.8967 23.194 15.0922 23.1051 15.3073C23.0162 15.5225 22.9707 15.7531 22.9712 15.9859V19.5866L26.7762 20.9901C28.2562 21.538 29.0166 23.1871 28.4686 24.6669L27.741 26.6433H33.6284C33.8612 26.6438 34.0918 26.5983 34.3069 26.5094C34.5221 26.4206 34.7176 26.2901 34.8822 26.1255C35.0468 25.9609 35.1773 25.7654 35.2662 25.5502C35.355 25.335 35.4005 25.1044 35.4001 24.8716V15.9859C35.4005 15.7531 35.355 15.5225 35.2662 15.3073C35.1773 15.0922 35.0468 14.8967 34.8822 14.7321C34.7176 14.5675 34.5221 14.437 34.3069 14.3481C34.0918 14.2592 33.8612 14.2137 33.6284 14.2142ZM27.1959 19.9927C26.9954 19.993 26.7967 19.9537 26.6114 19.8771C26.4261 19.8005 26.2577 19.6881 26.1159 19.5463C25.9741 19.4045 25.8617 19.2361 25.7851 19.0508C25.7085 18.8655 25.6692 18.6668 25.6695 18.4663C25.6692 18.2657 25.7085 18.0671 25.7851 17.8818C25.8617 17.6965 25.9741 17.5281 26.1159 17.3863C26.2577 17.2445 26.4261 17.132 26.6114 17.0554C26.7967 16.9788 26.9954 16.9396 27.1959 16.9399C27.3965 16.9396 27.5951 16.9788 27.7804 17.0554C27.9658 17.132 28.1341 17.2445 28.2759 17.3863C28.4178 17.5281 28.5302 17.6965 28.6068 17.8818C28.6834 18.0671 28.7226 18.2657 28.7223 18.4663C28.7226 18.6668 28.6834 18.8655 28.6068 19.0508C28.5302 19.2361 28.4178 19.4045 28.2759 19.5463C28.1341 19.6881 27.9658 19.8005 27.7804 19.8771C27.5951 19.9537 27.3965 19.993 27.1959 19.9927ZM31.1751 23.9448C30.9746 23.9451 30.776 23.9058 30.5907 23.8292C30.4054 23.7525 30.237 23.6401 30.0952 23.4983C29.9535 23.3565 29.8411 23.1881 29.7645 23.0028C29.6879 22.8175 29.6486 22.6189 29.649 22.4184C29.649 21.5736 30.3306 20.892 31.1754 20.892C32.0202 20.892 32.7018 21.5736 32.7018 22.4184C32.7021 22.6189 32.6628 22.8175 32.5862 23.0029C32.5096 23.1882 32.3972 23.3566 32.2554 23.4984C32.1136 23.6402 31.9452 23.7526 31.7599 23.8292C31.5745 23.9058 31.3757 23.9451 31.1751 23.9448Z" fill="white" />
</svg>
