<svg xmlns="http://www.w3.org/2000/svg" fill="none" overflow="visible" preserveAspectRatio="xMidYMid meet" style="display:block" viewBox="0 0 24 24"><g fill="var(--fill-0, white)"><path d="M14.398 10.015 6.062 6.938a1.77 1.77 0 0 0-2.275 1.05L.71 16.323a1.77 1.77 0 0 0 1.05 2.275l8.336 3.076a1.77 1.77 0 0 0 2.275-1.049l3.076-8.336a1.77 1.77 0 0 0-1.049-2.275m-7.516-.653a1.41 1.41 0 0 1 .84 1.82 1.41 1.41 0 0 1-1.821.84 1.41 1.41 0 0 1-.84-1.821c.3-.732 1.105-1.103 1.821-.84m-2.925 7.927a1.407 1.407 0 0 1-.84-1.82 1.41 1.41 0 0 1 1.821-.84 1.407 1.407 0 0 1 .84 1.82 1.41 1.41 0 0 1-1.82.84m3.631-1.653a1.41 1.41 0 0 1-.839-1.82 1.41 1.41 0 0 1 1.82-.839 1.41 1.41 0 0 1 .84 1.82 1.41 1.41 0 0 1-1.82.84m1.662 3.606a1.407 1.407 0 0 1-.839-1.82 1.41 1.41 0 0 1 1.82-.84 1.407 1.407 0 0 1 .84 1.821 1.407 1.407 0 0 1-1.82.84m1.953-5.293a1.41 1.41 0 0 1-.839-1.82 1.407 1.407 0 0 1 1.82-.84 1.41 1.41 0 0 1 .84 1.82 1.41 1.41 0 0 1-1.82.84"/><path d="M21.628 2.214h-8.885a1.767 1.767 0 0 0-1.772 1.772v3.6l3.805 1.404a2.865 2.865 0 0 1 1.693 3.677l-.728 1.976h5.887a1.767 1.767 0 0 0 1.772-1.771V3.986a1.767 1.767 0 0 0-1.772-1.772m-6.432 5.779a1.524 1.524 0 0 1-1.411-2.111 1.524 1.524 0 0 1 1.995-.827 1.524 1.524 0 0 1 .827 1.996 1.52 1.52 0 0 1-1.411.942m3.98 3.952a1.524 1.524 0 0 1-1.527-1.527c0-.844.681-1.526 1.526-1.526a1.524 1.524 0 0 1 1.411 2.11 1.52 1.52 0 0 1-1.41.943"/></g></svg>
